<svg id="Layer_1" class="logo" data-name="Layer 1" xmlns="http://www.w3.org/2000/svg" viewBox="0 0 498.28 243.89">
    <defs>
        <style>
            .cls-1 {
            fill: #FFF;
            }
        </style>
    </defs>
    <path class="cls-1" d="M33.19,244.13a30.29,30.29,0,0,1-13.63-3,33.86,33.86,0,0,1-10.52-8A36.52,36.52,0,0,1,2.25,221.7,37,37,0,0,1-.16,208.52a36.13,36.13,0,0,1,2.51-13.28,35.27,35.27,0,0,1,7-11.26,34.54,34.54,0,0,1,10.67-7.77,31.23,31.23,0,0,1,13.53-2.9,30.14,30.14,0,0,1,13.62,3.05,33.68,33.68,0,0,1,10.53,8.06,36.49,36.49,0,0,1,6.73,11.41,37.42,37.42,0,0,1,2.37,13.08,35.71,35.71,0,0,1-2.51,13.23,36.47,36.47,0,0,1-6.94,11.22,34,34,0,0,1-10.62,7.82A31.27,31.27,0,0,1,33.19,244.13ZM19.32,208.72a27.48,27.48,0,0,0,.83,6.83,18,18,0,0,0,2.61,5.86,14.09,14.09,0,0,0,4.43,4.13,11.89,11.89,0,0,0,6.19,1.57,11.86,11.86,0,0,0,6.3-1.62A13.36,13.36,0,0,0,44,221.26a19.78,19.78,0,0,0,2.5-5.95,27.75,27.75,0,0,0,.84-6.79,25.87,25.87,0,0,0-.89-6.84,19,19,0,0,0-2.6-5.8,13.32,13.32,0,0,0-4.38-4,12.21,12.21,0,0,0-6.2-1.53A11.83,11.83,0,0,0,27,191.9a13.49,13.49,0,0,0-4.33,4.18,19.16,19.16,0,0,0-2.56,5.9A27.17,27.17,0,0,0,19.32,208.72Z"></path>
    <path class="cls-1" d="M113.35,227.11a10.61,10.61,0,0,0,5.71-1.47,11.77,11.77,0,0,0,3.83-3.89,17.78,17.78,0,0,0,2.17-5.56,31.33,31.33,0,0,0,.68-6.59V173.7h19.19v35.9a48.23,48.23,0,0,1-1.87,13.63,29.64,29.64,0,0,1-5.81,11,27.37,27.37,0,0,1-9.88,7.28,34.18,34.18,0,0,1-14,2.66A33.35,33.35,0,0,1,99,241.32a27.33,27.33,0,0,1-9.79-7.52,30.35,30.35,0,0,1-5.61-11,48.27,48.27,0,0,1-1.77-13.23V173.7h19.19v35.9a31.35,31.35,0,0,0,.68,6.64,17.79,17.79,0,0,0,2.17,5.61,11.36,11.36,0,0,0,3.78,3.83A10.5,10.5,0,0,0,113.35,227.11Z"></path>
    <path class="cls-1" d="M218.11,190.42H198v53.12H178.86V190.42H158.7V173.7h59.41Z"></path>
    <path class="cls-1" d="M233,243.54V173.7h19.18v28.53l23.22-28.53H295L269.65,205l27.15,38.56H276.73L258.34,215.7l-6.2,7.08v20.76Z"></path>
    <path class="cls-1" d="M358.37,226.82v16.72H308.6V173.7h48.89v16.72H327.78v9.84h25.38V215.8H327.78v11Z"></path>
    <path class="cls-1" d="M375.19,243.54V173.7h30.1a21.32,21.32,0,0,1,9.44,2.11,24.73,24.73,0,0,1,7.43,5.51,26,26,0,0,1,4.87,7.77,23.36,23.36,0,0,1,1.77,8.81,25.54,25.54,0,0,1-6.35,16.77,22.35,22.35,0,0,1-7.27,5.41,21.87,21.87,0,0,1-9.4,2H394.37v21.44Zm19.18-38.17H404.5a4.51,4.51,0,0,0,3.3-1.62q1.51-1.62,1.52-5.85c0-2.89-.59-4.85-1.77-5.9a5.37,5.37,0,0,0-3.54-1.58h-9.64Z"></path>
    <path class="cls-1" d="M498.44,190.42H478.37v53.12H459.19V190.42H439V173.7h59.41Z"></path>
    <polygon class="cls-1" points="118.63 49.62 225.66 49.62 225.66 -0.24 77.86 -0.24 77.86 147.56 225.66 147.56 225.66 97.7 118.63 97.7 118.63 49.62"></polygon>
    <rect class="cls-1" x="225.66" y="49.62" width="107.04" height="48.08"></rect>
</svg>
